<svg xmlns="http://www.w3.org/2000/svg" xmlns:xlink="http://www.w3.org/1999/xlink" version="1.1" x="0px" y="0px" viewBox="0 0 24 30" style="enable-background:new 0 0 24 24;" xml:space="preserve"><g><path d="M12,4.75c-2.478,0-4.494,2.016-4.494,4.494S9.522,13.738,12,13.738c2.478,0,4.494-2.016,4.494-4.494S14.478,4.75,12,4.75z    M12,12.938c-2.037,0-3.694-1.657-3.694-3.693C8.306,7.207,9.963,5.55,12,5.55s3.693,1.657,3.693,3.694   C15.693,11.281,14.037,12.938,12,12.938z"/><path d="M23.9,12c0-6.562-5.339-11.9-11.9-11.9S0.1,5.438,0.1,12c0,3.961,1.953,7.466,4.938,9.631   c0.004,0.004,0.006,0.009,0.009,0.013l0.01,0.01l0.005-0.005C7.018,23.059,9.41,23.9,12,23.9c2.517,0,4.851-0.791,6.776-2.13   l0.132-0.01l0.071-0.142C21.954,19.453,23.9,15.954,23.9,12z M5.594,21.048c-0.391-0.436-0.581-1.148-0.492-1.876   c0.083-0.68,0.398-1.253,0.842-1.534c3.628-2.303,8.492-2.3,12.11,0.021c0.525,0.334,0.865,1.073,0.865,1.882   c0,0.613-0.194,1.164-0.53,1.52C16.581,22.34,14.379,23.1,12,23.1C9.613,23.1,7.406,22.335,5.594,21.048z M19.683,19.992   c0.019-0.148,0.037-0.297,0.037-0.452c0-1.092-0.474-2.072-1.235-2.557c-3.874-2.484-9.084-2.487-12.97-0.021   c-0.653,0.415-1.093,1.185-1.208,2.112c-0.039,0.317-0.024,0.624,0.015,0.923C2.218,17.976,0.9,15.142,0.9,12   C0.9,5.879,5.879,0.9,12,0.9c6.12,0,11.1,4.979,11.1,11.1C23.1,15.138,21.785,17.971,19.683,19.992z"/></g><text x="0" y="39" fill="#000000" font-size="5px" font-weight="bold" font-family="'Helvetica Neue', Helvetica, Arial-Unicode, Arial, Sans-serif">Created by myiconfinder</text><text x="0" y="44" fill="#000000" font-size="5px" font-weight="bold" font-family="'Helvetica Neue', Helvetica, Arial-Unicode, Arial, Sans-serif">from the Noun Project</text></svg>